<?xml version="1.0" encoding="utf-8"?>
<!-- Generator: Adobe Illustrator 23.0.4, SVG Export Plug-In . SVG Version: 6.00 Build 0)  -->
<svg version="1.1" id="Layer_1" xmlns="http://www.w3.org/2000/svg" xmlns:xlink="http://www.w3.org/1999/xlink" x="0px" y="0px"
	 viewBox="0 0 221 590" style="enable-background:new 0 0 221 590;" xml:space="preserve">
<style type="text/css">
	.st0{opacity:0.1;fill:#662D91;fill-opacity:0.5;enable-background:new    ;}
</style>
<title>Pin</title>
<path class="st0" d="M0,71.4c-39.4,0-71.4,32.1-71.4,71.4s32,71.4,71.4,71.4s71.4-32.1,71.4-71.4S39.4,71.4,0,71.4z M0,190.6
	c-26.3,0-47.7-21.3-47.7-47.7S-26.3,95.3,0,95.3s47.6,21.3,47.6,47.7C47.6,169.2,26.3,190.5,0,190.6z M0,0
	c-78.9,0-142.8,64-142.8,143c0,57.6,20,73.7,128.1,230.6c5.6,8.1,16.7,10.1,24.8,4.5c1.7-1.2,3.3-2.7,4.5-4.5
	c108.1-156.9,128.1-173,128.1-230.6C142.8,64,78.9,0,0,0z M0,352.8C-103.6,202.9-119,191-119,143c-0.1-31.6,12.4-61.9,34.9-84.2
	c22.3-22.4,52.6-35,84.1-34.9c31.6-0.1,61.9,12.5,84.1,34.9c22.4,22.3,35,52.6,34.9,84.2C119,191,103.6,202.9,0,352.8z"/>
</svg>
